<svg width="56" height="56" viewBox="0 0 56 56" fill="none" xmlns="http://www.w3.org/2000/svg">
<path d="M28.0668 51.4874C14.8244 51.4463 4.20664 40.7476 4.25517 27.5006C4.3037 14.3809 15.0148 3.7421 28.1377 3.77578C41.2755 3.80945 51.9232 14.5792 51.856 27.7626C51.785 40.8674 41.0926 51.5286 28.0668 51.4874ZM48.1487 16.4465C44.5534 9.20555 35.317 3.98907 27.294 4.53168C26.7489 4.5691 26.5734 4.75995 26.5883 5.27635C26.6145 6.09961 26.5958 6.92287 26.5958 7.67878C15.4292 9.54608 9.30645 16.0274 8.1155 27.1826C7.10375 27.3547 6.06213 27.5306 5.00185 27.7139C5.09145 31.6394 5.93146 35.1682 7.75336 38.5024C8.78378 37.9673 9.70593 37.4845 10.6505 36.9943C10.8334 37.2974 10.9939 37.5706 11.162 37.84C15.5823 45.0211 24.0646 48.6509 32.1586 46.8323C32.9426 46.6564 33.8647 46.2148 34.4957 46.4656C35.1602 46.7275 35.6157 47.6368 36.0525 48.3329C36.4706 48.999 36.8626 49.0027 37.5272 48.6921C41.8691 46.6676 45.2964 43.6291 47.7828 39.5352C49.4367 36.811 50.4783 33.8659 50.8778 30.6627C49.9967 30.3933 49.1903 30.0976 48.3615 29.9031C47.7418 29.7609 47.5663 29.4765 47.6073 28.844C47.7866 26.1722 47.4543 23.5565 46.5396 21.0343C46.2297 20.1774 45.8713 19.3316 45.5428 18.4972C46.4313 17.8011 47.2751 17.135 48.1487 16.4465Z" fill="#000000"/>
<path d="M52.6474 40.5493C46.7748 51.4612 34.5479 56.9958 22.5712 54.6607C9.99337 52.2059 -0.982808 40.6878 0.0700092 24.8699C0.865222 12.8952 9.6051 2.78412 20.5551 0C20.7231 0.568798 20.8986 1.1376 21.0554 1.71014C21.2197 2.29764 20.8053 2.35003 20.3871 2.49223C12.2334 5.26512 6.53252 10.6687 3.76607 18.8339C-1.16948 33.3982 7.6488 48.6809 22.3024 52.0974C33.2002 54.6383 44.2137 49.7174 49.8474 40.6279C50.6202 39.3818 50.6202 39.378 51.953 40.1339C52.1695 40.2537 52.3786 40.3884 52.6474 40.5493Z" fill="#000000"/>
<path d="M37.4413 3.01239C37.5832 2.28268 37.7362 1.51929 37.8893 0.740936C49.2164 4.73749 55.9813 16.091 56 25.6558C55.2981 25.7231 54.5888 25.7942 53.7749 25.8766C52.793 15.0395 47.3012 7.49915 37.4413 3.01239Z" fill="#000000"/>
<path d="M41.1224 29.8394C39.0989 29.8394 37.1613 29.8394 35.2236 29.8394C32.4535 29.8394 29.6833 29.8282 26.9094 29.8507C26.3755 29.8544 26.0395 29.7234 26.0059 29.1546C25.9125 27.7214 25.8304 26.2882 25.7557 25.0758C25.2443 26.8645 25.0875 28.874 26.3867 30.7301C27.2416 31.9537 28.6379 32.0847 29.8065 31.1567C30.8817 30.2997 31.2924 30.3371 32.1548 31.3737C33.4801 32.9678 34.8092 34.5582 36.1346 36.1486C36.9111 37.0841 36.8253 37.7128 35.8247 38.4313C28.0331 44.0257 17.1241 39.9543 15.0334 30.6739C12.9763 21.517 20.585 13.1609 29.8326 14.422C37.0754 15.4099 41.7272 21.154 41.2083 28.4698C41.1784 28.8815 41.156 29.2931 41.1224 29.8394ZM30.3627 24.0242C29.3622 22.5386 27.5142 22.5648 26.4875 24.0242C27.768 24.0242 29.0113 24.0242 30.3627 24.0242Z" fill="#000000"/>
<path d="M27.6001 45.4851C27.6001 45.051 27.5964 44.6731 27.6038 44.2951C27.6076 44.1717 27.6337 44.0519 27.6598 43.8723C33.581 43.7226 38.3224 41.3351 41.5928 36.3544C44.1129 32.5113 44.8185 28.2715 43.7732 23.7997C41.7123 14.9497 32.3676 8.82385 22.3995 12.1917C22.0635 11.7689 21.7237 11.3348 21.3802 10.9045C25.8193 8.67043 33.6445 8.83134 39.4237 13.6624C45.4756 18.7179 47.585 27.089 44.5758 34.3898C41.3651 42.1846 33.7826 45.8069 27.6001 45.4851Z" fill="#000000"/>
<path d="M17.6841 40.2724C17.4265 40.7102 17.1577 41.163 16.8889 41.612C10.1203 36.7361 7.67491 26.2321 12.5545 18.3512C12.9689 18.673 13.3833 18.9911 13.8051 19.3167C10.0195 27.2574 11.315 34.2476 17.6841 40.2724Z" fill="#000000"/>
</svg>
